<svg width="18" height="18" viewBox="0 0 18 18" fill="none" xmlns="http://www.w3.org/2000/svg">
<path d="M4.59975 15.7502C3.71625 15.7502 3 15.0152 3 14.1077V7.50621C3 7.00746 3.22125 6.53496 3.6 6.22371L8.00025 2.61021C8.28139 2.37739 8.63497 2.25 9 2.25C9.36503 2.25 9.71861 2.37739 9.99975 2.61021L14.3992 6.22371C14.7787 6.53496 15 7.00746 15 7.50621V14.1077C15 15.0152 14.2838 15.7502 13.4003 15.7502H4.59975Z" stroke="black" stroke-width="1.125" stroke-linecap="round" stroke-linejoin="round"/>
<path d="M6.75 12C7.3875 12.4725 8.16375 12.75 9 12.75C9.83625 12.75 10.6125 12.4725 11.25 12M7.125 8.625V8.25M10.875 8.625V8.25" stroke="black" stroke-width="1.125" stroke-linecap="round" stroke-linejoin="round"/>
</svg>
