<svg width="32" height="32" viewBox="0 0 32 32" fill="none" xmlns="http://www.w3.org/2000/svg">
<path d="M2.75864 7.30998L14.592 19.1447C14.942 19.495 15.4096 19.7029 15.9042 19.7283C16.3988 19.7537 16.8852 19.5946 17.2693 19.282L17.4213 19.1447L29.2466 7.31798C29.2849 7.46465 29.3106 7.61443 29.324 7.76732L29.3346 8.00065V24.0007C29.3348 24.6734 29.0808 25.3214 28.6233 25.8147C28.1659 26.308 27.5388 26.6102 26.868 26.6607L26.668 26.6673H5.33464C4.66187 26.6675 4.01388 26.4134 3.52057 25.956C3.02726 25.4985 2.72509 24.8715 2.67464 24.2007L2.66797 24.0007V8.00065C2.66797 7.84065 2.6813 7.6851 2.70797 7.53398L2.75864 7.30998ZM26.668 5.33398C26.8297 5.33398 26.9875 5.34776 27.1413 5.37532L27.368 5.42732L16.008 16.7873L4.64397 5.42465C4.79152 5.38465 4.94264 5.35798 5.0973 5.34465L5.33464 5.33398H26.668Z" fill="black"/>
</svg>
