<svg width="18" height="18" viewBox="0 0 18 18" fill="none" xmlns="http://www.w3.org/2000/svg">
<g clip-path="url(#clip0_1132_2107)">
<path fill-rule="evenodd" clip-rule="evenodd" d="M9.00391 1.49805C4.86166 1.49805 1.50391 4.8558 1.50391 8.99805C1.50391 13.1403 4.86166 16.498 9.00391 16.498C13.1462 16.498 16.5039 13.1403 16.5039 8.99805C16.5039 4.8558 13.1462 1.49805 9.00391 1.49805ZM5.82241 8.99505C5.96305 9.13565 6.15378 9.21464 6.35266 9.21464C6.55153 9.21464 6.74226 9.13565 6.88291 8.99505L8.25391 7.6233V12.1803C8.25391 12.3792 8.33292 12.57 8.47358 12.7106C8.61423 12.8513 8.80499 12.9303 9.00391 12.9303C9.20282 12.9303 9.39358 12.8513 9.53424 12.7106C9.67489 12.57 9.75391 12.3792 9.75391 12.1803V7.6233L11.1257 8.99505C11.2664 9.13568 11.4572 9.21465 11.6562 9.21457C11.8551 9.2145 12.0459 9.1354 12.1865 8.99467C12.3272 8.85394 12.4061 8.66311 12.4061 8.46416C12.406 8.2652 12.3269 8.07443 12.1862 7.9338L9.53416 5.28255C9.39351 5.14194 9.20278 5.06296 9.00391 5.06296C8.80503 5.06296 8.6143 5.14194 8.47366 5.28255L5.82241 7.93305C5.75267 8.0027 5.69736 8.08542 5.65961 8.17647C5.62187 8.26752 5.60244 8.36511 5.60244 8.46367C5.60244 8.56223 5.62187 8.65983 5.65961 8.75088C5.69736 8.84193 5.75267 8.92464 5.82241 8.9943V8.99505Z" fill="#959595"/>
</g>
<defs>
<clipPath id="clip0_1132_2107">
<rect width="18" height="18" fill="white"/>
</clipPath>
</defs>
</svg>
