<svg width="32" height="32" viewBox="0 0 32 32" fill="none" xmlns="http://www.w3.org/2000/svg">
<path d="M9.36694 3.08041C10.3687 3.41845 11.3214 3.8874 12.2003 4.47507C13.4423 4.15717 14.7195 3.99768 16.0016 4.00041C17.3256 4.00041 18.6029 4.16574 19.8003 4.47374C20.6788 3.88664 21.631 3.41814 22.6323 3.08041C23.5616 2.76441 24.8856 2.25241 25.6723 3.12307C26.2056 3.71507 26.3389 4.70707 26.4336 5.46441C26.5403 6.30974 26.5656 7.41107 26.2856 8.50441C27.3563 9.88707 28.0016 11.5364 28.0016 13.3337C28.0016 16.0564 26.5269 18.4204 24.3443 20.0577C23.2933 20.835 22.1284 21.4449 20.8909 21.8657C21.1763 22.5191 21.3349 23.2417 21.3349 24.0004V28.0004C21.3349 28.354 21.1945 28.6932 20.9444 28.9432C20.6944 29.1933 20.3552 29.3337 20.0016 29.3337H12.0016C11.648 29.3337 11.3088 29.1933 11.0588 28.9432C10.8088 28.6932 10.6683 28.354 10.6683 28.0004V26.6791C9.39494 26.8351 8.32694 26.6964 7.41894 26.3111C6.46961 25.9084 5.80827 25.2844 5.31094 24.6871C4.83894 24.1217 4.32427 22.8471 3.58027 22.5991C3.41411 22.5437 3.26047 22.4562 3.12812 22.3415C2.99578 22.2268 2.88733 22.0872 2.80895 21.9305C2.65067 21.6142 2.62453 21.248 2.73627 20.9124C2.84802 20.5768 3.0885 20.2994 3.40481 20.1411C3.72112 19.9828 4.08735 19.9567 4.42294 20.0684C5.31094 20.3644 5.88961 21.0044 6.28561 21.5191C6.92561 22.3457 7.44561 23.4257 8.45894 23.8564C8.87627 24.0337 9.48828 24.1497 10.4456 24.0191L10.6683 23.9737C10.6713 23.2482 10.8224 22.5309 11.1123 21.8657C9.87477 21.4449 8.70987 20.835 7.65894 20.0577C5.47627 18.4204 4.00161 16.0577 4.00161 13.3337C4.00161 11.5391 4.64561 9.89108 5.71361 8.50974C5.43361 7.41641 5.45761 6.31241 5.56427 5.46574L5.57094 5.41507C5.66827 4.63907 5.78161 3.72574 6.32561 3.12307C7.11227 2.25241 8.43761 2.76574 9.36561 3.08174L9.36694 3.08041Z" fill="black"/>
</svg>
