<svg width="24" height="19" viewBox="0 0 24 19" fill="none" xmlns="http://www.w3.org/2000/svg">
<path d="M0.0807501 1.75987L10.6198 12.3001C10.9316 12.6121 11.348 12.7973 11.7885 12.8199C12.229 12.8425 12.6622 12.7009 13.0043 12.4224L13.1397 12.3001L23.6716 1.767C23.7057 1.89762 23.7286 2.03102 23.7405 2.16719L23.75 2.375V16.625C23.7502 17.2242 23.5239 17.8013 23.1165 18.2407C22.7091 18.68 22.1506 18.9491 21.5531 18.9941L21.375 19H2.375C1.77582 19.0002 1.1987 18.7739 0.759349 18.3665C0.319996 17.9591 0.0508764 17.4006 0.00593764 16.8031L0 16.625V2.375C0 2.2325 0.011875 2.09396 0.035625 1.95938L0.0807501 1.75987ZM21.375 0C21.5191 0 21.6596 0.012271 21.7966 0.0368127L21.9984 0.0831252L11.8809 10.2006L1.75988 0.0807498C1.89129 0.0451248 2.02588 0.0213749 2.16363 0.00949988L2.375 0H21.375Z" fill="#959595"/>
</svg>
