<svg width="38" height="32" viewBox="0 0 38 32" fill="none" xmlns="http://www.w3.org/2000/svg">
<path fill-rule="evenodd" clip-rule="evenodd" d="M33.5784 0.218922C34.039 0.0250783 34.5431 -0.0417771 35.0382 0.0253136C35.5334 0.0924042 36.0015 0.290989 36.3939 0.600397C36.7863 0.909806 37.0886 1.31873 37.2693 1.7846C37.45 2.25047 37.5025 2.75626 37.4214 3.24933L33.1945 28.8885C32.7845 31.3617 30.0709 32.78 27.8027 31.548C25.9055 30.5174 23.0875 28.9295 20.5529 27.2727C19.2856 26.4433 15.4034 23.7875 15.8805 21.8977C16.2906 20.2819 22.8136 14.2099 26.541 10.5998C28.004 9.18154 27.3368 8.36337 25.6092 9.66798C21.3189 12.9071 14.4306 17.8329 12.1531 19.2195C10.144 20.4421 9.0966 20.6509 7.84418 20.4421C5.55926 20.0619 3.44022 19.473 1.71068 18.7555C-0.626418 17.7863 -0.512732 14.5733 1.70882 13.6377L33.5784 0.218922Z" fill="#959595"/>
</svg>
